# xmcd CD Database Entry
#
# Track frame offsets:
# 150
# 18173
# 41893
# 62582
# 82891
# 101172
# 116919
# 138142
# 157892
# 182929
# 204127
# 223865
#
# Disc length: 3360 seconds
#
# Revision: 1
# Processed by: cddbd v1.4PL0 Copyright (c) Steve Scherf et al.
# Submitted via: tcd 2.0b
#
DISCID=a00d1e0c
DTITLE=eagle eye cherry - desireless
DYEAR=1900
DGENRE=
TTITLE0=save tonight
TTITLE1=indecision
TTITLE2=comatose (in the arms of slumber)
TTITLE3=worried eyes
TTITLE4=rainbow wings
TTITLE5=falling in love again
TTITLE6=conversation
TTITLE7=when mermaids cry
TTITLE8=shooting up in vain
TTITLE9=permanent tears
TTITLE10=death defied by will
TTITLE11=desireless
EXTD=
EXTT0=
EXTT1=
EXTT2=
EXTT3=
EXTT4=
EXTT5=
EXTT6=
EXTT7=
EXTT8=
EXTT9=
EXTT10=
EXTT11=
PLAYORDER=
